<?xml version="1.0" encoding="utf-8"?>
<!-- Generator: Adobe Illustrator 17.0.0, SVG Export Plug-In . SVG Version: 6.00 Build 0)  -->
<!DOCTYPE svg PUBLIC "-//W3C//DTD SVG 1.1//EN" "http://www.w3.org/Graphics/SVG/1.1/DTD/svg11.dtd">
<svg version="1.1" id="Layer_1" xmlns="http://www.w3.org/2000/svg" xmlns:xlink="http://www.w3.org/1999/xlink" x="0px" y="0px"
	 width="30px" height="30px" viewBox="0 0 30 30" enable-background="new 0 0 30 30" xml:space="preserve">
<path fill="#78B711" d="M15,0C6.729,0,0,6.729,0,15s6.729,15,15,15s15-6.729,15-15S23.271,0,15,0z M23.613,12.466L14.19,21.89
	c-0.401,0.401-0.933,0.621-1.5,0.621s-1.099-0.221-1.5-0.621l-4.803-4.803c-0.401-0.401-0.621-0.933-0.621-1.5
	c0-0.567,0.221-1.099,0.621-1.5c0.401-0.401,0.933-0.621,1.5-0.621c0.567,0,1.099,0.221,1.5,0.622l3.303,3.303l7.924-7.924
	c0.401-0.401,0.933-0.621,1.5-0.621c0.567,0,1.099,0.221,1.5,0.621C24.44,10.294,24.44,11.639,23.613,12.466z"/>
<path fill="#FFFFFF" d="M23.613,12.466L14.19,21.89c-0.401,0.401-0.933,0.621-1.5,0.621c-0.567,0-1.099-0.221-1.5-0.621
	l-4.803-4.803c-0.401-0.401-0.621-0.933-0.621-1.5c0-0.567,0.221-1.099,0.621-1.5c0.401-0.401,0.933-0.621,1.5-0.621
	c0.567,0,1.099,0.221,1.5,0.622l3.303,3.303l7.924-7.924c0.401-0.401,0.933-0.621,1.5-0.621s1.099,0.221,1.5,0.621
	C24.44,10.294,24.44,11.639,23.613,12.466z"/>
</svg>
